<svg xmlns="http://www.w3.org/2000/svg" xmlns:xlink="http://www.w3.org/1999/xlink" width="500" zoomAndPan="magnify" viewBox="0 0 375 374.999991" height="500" preserveAspectRatio="xMidYMid meet" version="1.0"><defs><g/></defs><g fill="#bfbfbf" fill-opacity="1"><g transform="translate(50.982292, 312.317784)"><g><path d="M 301.3125 -200.640625 C 301.8125 -199.648438 302.304688 -198.722656 302.796875 -197.859375 C 303.285156 -197.003906 303.65625 -196.085938 303.90625 -195.109375 L 290.25 -195.109375 C 290.75 -194.117188 291.242188 -192.945312 291.734375 -191.59375 C 292.222656 -190.238281 292.710938 -188.945312 293.203125 -187.71875 L 235.296875 -187.71875 L 237.515625 -180.34375 L 267.390625 -180.34375 L 268.5 -174.8125 L 264.4375 -174.8125 C 264.6875 -174.320312 264.8125 -173.707031 264.8125 -172.96875 C 264.8125 -172.226562 264.929688 -171.613281 265.171875 -171.125 L 255.21875 -171.125 L 255.59375 -167.4375 L 263.328125 -167.4375 C 263.328125 -166.457031 263.390625 -165.535156 263.515625 -164.671875 C 263.640625 -163.816406 263.703125 -162.894531 263.703125 -161.90625 L 277.34375 -161.90625 C 277.59375 -160.925781 277.71875 -160.066406 277.71875 -159.328125 C 277.71875 -158.585938 277.71875 -157.726562 277.71875 -156.75 L 277.71875 -156.375 L 243.046875 -156.375 C 243.046875 -155.144531 243.109375 -153.914062 243.234375 -152.6875 C 243.359375 -151.457031 243.421875 -150.226562 243.421875 -149 L 251.15625 -149 C 251.15625 -147.769531 251.21875 -146.539062 251.34375 -145.3125 C 251.46875 -144.082031 251.53125 -142.851562 251.53125 -141.625 L 264.8125 -141.625 L 264.8125 -139.78125 L 259.640625 -139.78125 L 259.640625 -132.40625 L 261.125 -132.40625 L 261.125 -126.875 L 282.875 -126.875 L 282.875 -119.5 L 262.21875 -119.5 L 262.21875 -115.8125 L 260.015625 -115.8125 C 260.015625 -115.3125 260.015625 -114.691406 260.015625 -113.953125 C 260.015625 -113.222656 259.890625 -112.613281 259.640625 -112.125 L 253 -112.125 L 253 -104.75 L 253.75 -104.75 C 253.5 -104.007812 253.375 -103.023438 253.375 -101.796875 L 253.375 -101.046875 L 267.015625 -101.046875 C 267.015625 -100.066406 266.953125 -99.144531 266.828125 -98.28125 C 266.710938 -97.425781 266.65625 -96.503906 266.65625 -95.515625 L 272.1875 -95.515625 C 272.1875 -94.285156 272.125 -93.054688 272 -91.828125 C 271.875 -90.597656 271.691406 -89.367188 271.453125 -88.140625 L 263.328125 -88.140625 C 263.085938 -87.648438 262.96875 -87.035156 262.96875 -86.296875 C 262.96875 -85.566406 262.84375 -84.953125 262.59375 -84.453125 L 218.34375 -84.453125 C 218.34375 -83.472656 218.09375 -82.242188 217.59375 -80.765625 L 256.328125 -80.765625 C 255.835938 -79.296875 255.59375 -78.066406 255.59375 -77.078125 L 261.125 -77.078125 C 260.875 -76.097656 260.6875 -75.175781 260.5625 -74.3125 C 260.4375 -73.457031 260.128906 -72.535156 259.640625 -71.546875 L 258.53125 -67.859375 L 247.84375 -67.859375 L 247.109375 -66.015625 L 264.4375 -66.015625 C 263.945312 -65.035156 263.703125 -64.421875 263.703125 -64.171875 L 252.640625 -64.171875 L 251.90625 -62.328125 L 251.53125 -62.328125 C 251.039062 -61.097656 250.546875 -59.867188 250.046875 -58.640625 C 249.554688 -57.410156 248.941406 -56.179688 248.203125 -54.953125 L 242.671875 -54.953125 L 238.625 -47.578125 L 244.890625 -47.578125 L 242.671875 -43.890625 L 243.046875 -43.890625 C 242.554688 -43.398438 242.0625 -42.785156 241.5625 -42.046875 C 241.070312 -41.304688 240.582031 -40.691406 240.09375 -40.203125 L 237.515625 -40.203125 C 236.773438 -39.460938 236.285156 -38.847656 236.046875 -38.359375 C 235.304688 -37.367188 234.566406 -36.441406 233.828125 -35.578125 C 233.085938 -34.722656 232.226562 -33.804688 231.25 -32.828125 L 230.140625 -32.828125 C 228.910156 -31.597656 227.617188 -30.367188 226.265625 -29.140625 C 224.910156 -27.910156 223.5 -26.679688 222.03125 -25.453125 L 225.34375 -25.453125 L 217.59375 -19.921875 L 217.96875 -19.921875 C 216 -18.691406 213.90625 -17.460938 211.6875 -16.234375 C 209.476562 -15.003906 207.144531 -13.773438 204.6875 -12.546875 L 204.328125 -12.546875 C 201.867188 -11.316406 198.796875 -10.082031 195.109375 -8.84375 L 195.46875 -8.84375 C 190.550781 -7.125 185.382812 -5.648438 179.96875 -4.421875 C 174.5625 -3.191406 169.035156 -2.207031 163.390625 -1.46875 L 171.125 -1.46875 C 167.195312 -0.976562 163.140625 -0.609375 158.953125 -0.359375 C 154.773438 -0.117188 150.472656 0 146.046875 0 L 37.984375 0 C 35.773438 0 34.054688 -0.488281 32.828125 -1.46875 L 25.078125 -1.46875 C 22.617188 -2.945312 21.144531 -5.40625 20.65625 -8.84375 L 20.28125 -8.84375 L 20.28125 -12.546875 L 21.015625 -12.546875 L 21.015625 -19.921875 L 20.28125 -19.921875 L 20.28125 -25.453125 L 17.328125 -25.453125 L 17.328125 -32.828125 L 18.4375 -32.828125 L 18.4375 -38.359375 L 18.078125 -38.359375 L 18.078125 -40.203125 L 21.015625 -40.203125 L 21.015625 -43.890625 L 20.65625 -43.890625 L 20.65625 -47.578125 L 14.015625 -47.578125 L 14.015625 -54.953125 L 19.921875 -54.953125 L 19.921875 -62.328125 L 20.28125 -62.328125 L 20.28125 -64.171875 L 31.34375 -64.171875 L 31.34375 -66.015625 L 14.390625 -66.015625 L 14.390625 -67.859375 L 25.078125 -67.859375 L 25.078125 -77.078125 L 19.921875 -77.078125 L 19.921875 -80.765625 L 19.546875 -80.765625 L 19.546875 -84.453125 L 29.140625 -84.453125 L 29.140625 -88.140625 L -13.28125 -88.140625 L -13.28125 -95.515625 L -14.75 -95.515625 L -14.75 -101.046875 L -9.953125 -101.046875 L -9.953125 -104.75 L 5.15625 -104.75 L 5.15625 -112.125 L 14.75 -112.125 L 14.75 -115.8125 L 20.28125 -115.8125 L 20.28125 -119.5 L 26.1875 -119.5 L 26.1875 -126.875 L 34.671875 -126.875 L 34.671875 -132.40625 L 42.78125 -132.40625 L 42.78125 -139.78125 L 18.078125 -139.78125 L 18.078125 -141.625 L 9.953125 -141.625 L 9.953125 -149 L -6.265625 -149 L -6.265625 -156.375 L 35.78125 -156.375 L 35.78125 -161.90625 L 3.3125 -161.90625 L 3.3125 -167.4375 L 21.015625 -167.4375 L 21.015625 -171.125 L 20.28125 -171.125 L 20.28125 -174.8125 L 17.328125 -174.8125 L 17.328125 -180.34375 L 1.46875 -180.34375 L 1.46875 -187.71875 L 59.015625 -187.71875 L 59.015625 -195.109375 L 72.65625 -195.109375 L 72.65625 -200.640625 L 6.265625 -200.640625 L 6.265625 -208.015625 L 49.796875 -208.015625 L 49.796875 -209.859375 L 15.484375 -209.859375 L 15.484375 -211.703125 L 85.203125 -211.703125 L 85.203125 -219.078125 L 76.34375 -219.078125 L 76.34375 -220.921875 L -11.4375 -220.921875 L -11.4375 -228.296875 L -0.734375 -228.296875 L -0.734375 -233.828125 L 22.125 -233.828125 L 22.125 -235.671875 L 34.296875 -235.671875 L 34.296875 -239.359375 L 27.65625 -239.359375 L 27.65625 -241.203125 L 19.921875 -241.203125 L 19.921875 -244.890625 L 20.65625 -244.890625 L 20.65625 -248.203125 C 20.65625 -248.703125 20.710938 -249.132812 20.828125 -249.5 C 20.953125 -249.875 21.015625 -250.179688 21.015625 -250.421875 L 22.5 -250.421875 C 23.726562 -255.585938 27.046875 -258.171875 32.453125 -258.171875 L 138.671875 -258.171875 C 157.609375 -258.171875 174.820312 -255.585938 190.3125 -250.421875 L 188.828125 -250.421875 C 193.253906 -248.941406 197.804688 -247.097656 202.484375 -244.890625 L 201.734375 -244.890625 C 202.960938 -244.398438 204.253906 -243.847656 205.609375 -243.234375 C 206.960938 -242.617188 208.128906 -241.941406 209.109375 -241.203125 L 216.859375 -241.203125 L 220.1875 -239.359375 L 226.453125 -239.359375 C 227.679688 -238.867188 228.722656 -238.253906 229.578125 -237.515625 C 230.441406 -236.773438 231.367188 -236.160156 232.359375 -235.671875 L 220.1875 -235.671875 C 220.675781 -235.421875 221.164062 -235.171875 221.65625 -234.921875 C 222.144531 -234.679688 222.515625 -234.316406 222.765625 -233.828125 L 199.890625 -233.828125 L 206.90625 -228.296875 L 195.84375 -228.296875 C 198.539062 -226.078125 201 -223.617188 203.21875 -220.921875 L 291 -220.921875 C 291.238281 -220.671875 291.476562 -220.421875 291.71875 -220.171875 C 291.96875 -219.929688 292.21875 -219.566406 292.46875 -219.078125 L 301.6875 -219.078125 C 302.664062 -218.085938 303.644531 -216.914062 304.625 -215.5625 C 305.613281 -214.21875 306.476562 -212.929688 307.21875 -211.703125 L 237.515625 -211.703125 C 237.765625 -211.453125 238.007812 -211.203125 238.25 -210.953125 C 238.5 -210.710938 238.742188 -210.347656 238.984375 -209.859375 L 273.296875 -209.859375 L 274.390625 -208.015625 L 230.875 -208.015625 C 232.59375 -205.554688 233.945312 -203.097656 234.9375 -200.640625 Z M 171.125 -174.8125 C 169.65625 -177.03125 167.8125 -178.875 165.59375 -180.34375 L 135.71875 -180.34375 C 130.3125 -184.28125 123.675781 -186.25 115.8125 -186.25 L 93.671875 -186.25 L 93.671875 -180.34375 L 109.53125 -180.34375 L 109.53125 -174.8125 L 112.484375 -174.8125 L 112.484375 -171.125 L 113.21875 -171.125 L 113.21875 -167.4375 L 95.515625 -167.4375 L 95.515625 -161.90625 L 127.984375 -161.90625 L 127.984375 -156.375 L 85.9375 -156.375 L 85.9375 -149 L 102.15625 -149 L 102.15625 -141.625 L 110.28125 -141.625 L 110.28125 -139.78125 L 134.984375 -139.78125 L 134.984375 -132.40625 L 126.875 -132.40625 L 126.875 -126.875 L 118.390625 -126.875 L 118.390625 -119.5 L 112.484375 -119.5 L 112.484375 -115.8125 L 106.953125 -115.8125 L 106.953125 -112.125 L 97.359375 -112.125 L 97.359375 -104.75 L 82.25 -104.75 L 82.25 -101.046875 L 77.453125 -101.046875 L 77.453125 -95.515625 L 78.921875 -95.515625 L 78.921875 -88.140625 L 121.34375 -88.140625 L 121.34375 -84.453125 L 111.75 -84.453125 L 111.75 -80.765625 L 112.125 -80.765625 L 112.125 -77.078125 L 117.28125 -77.078125 L 117.28125 -71.921875 L 141.25 -71.921875 C 148.382812 -71.921875 154.410156 -73.640625 159.328125 -77.078125 L 153.421875 -77.078125 C 154.160156 -77.566406 154.898438 -78.117188 155.640625 -78.734375 C 156.378906 -79.347656 156.992188 -80.023438 157.484375 -80.765625 L 119.125 -80.765625 C 119.613281 -81.253906 120.101562 -81.804688 120.59375 -82.421875 C 121.09375 -83.046875 121.460938 -83.722656 121.703125 -84.453125 L 165.96875 -84.453125 C 166.457031 -84.953125 166.820312 -85.507812 167.0625 -86.125 C 167.3125 -86.738281 167.5625 -87.410156 167.8125 -88.140625 L 176.296875 -88.140625 C 176.785156 -89.367188 177.148438 -90.597656 177.390625 -91.828125 C 177.640625 -93.054688 177.890625 -94.285156 178.140625 -95.515625 L 172.609375 -95.515625 C 172.847656 -96.503906 172.96875 -97.425781 172.96875 -98.28125 C 172.96875 -99.144531 173.09375 -100.066406 173.34375 -101.046875 L 159.703125 -101.046875 L 159.703125 -101.796875 C 159.703125 -102.285156 159.757812 -102.773438 159.875 -103.265625 C 160 -103.753906 160.0625 -104.25 160.0625 -104.75 L 159.328125 -104.75 C 159.328125 -105.976562 159.328125 -107.265625 159.328125 -108.609375 C 159.328125 -109.960938 159.453125 -111.132812 159.703125 -112.125 L 166.328125 -112.125 L 166.328125 -115.8125 L 168.546875 -115.8125 L 168.921875 -119.5 L 189.5625 -119.5 L 189.5625 -126.875 L 167.8125 -126.875 L 167.8125 -132.40625 L 166.328125 -132.40625 L 166.328125 -139.78125 L 171.5 -139.78125 L 171.5 -141.625 L 157.859375 -141.625 L 157.859375 -149 L 149.734375 -149 C 149.734375 -150.226562 149.734375 -151.457031 149.734375 -152.6875 C 149.734375 -153.914062 149.613281 -155.144531 149.375 -156.375 L 184.03125 -156.375 L 184.03125 -156.75 C 184.03125 -157.726562 183.96875 -158.644531 183.84375 -159.5 C 183.726562 -160.363281 183.671875 -161.164062 183.671875 -161.90625 L 170.015625 -161.90625 C 169.773438 -162.894531 169.53125 -163.816406 169.28125 -164.671875 C 169.039062 -165.535156 168.796875 -166.457031 168.546875 -167.4375 L 160.796875 -167.4375 C 160.554688 -168.175781 160.3125 -168.851562 160.0625 -169.46875 C 159.820312 -170.082031 159.578125 -170.632812 159.328125 -171.125 L 169.28125 -171.125 C 169.039062 -171.863281 168.734375 -172.539062 168.359375 -173.15625 C 167.992188 -173.769531 167.566406 -174.320312 167.078125 -174.8125 Z M 171.125 -174.8125 "/></g></g></g></svg>