<svg xmlns="http://www.w3.org/2000/svg" xmlns:xlink="http://www.w3.org/1999/xlink" width="500" zoomAndPan="magnify" viewBox="0 0 375 374.999991" height="500" preserveAspectRatio="xMidYMid meet" version="1.0"><defs><g/></defs><g fill="#ffffff" fill-opacity="1"><g transform="translate(92.811144, 274.073733)"><g><path d="M 209 -139.15625 C 209.34375 -138.476562 209.679688 -137.835938 210.015625 -137.234375 C 210.359375 -136.640625 210.617188 -136.003906 210.796875 -135.328125 L 201.328125 -135.328125 C 201.671875 -134.640625 202.007812 -133.828125 202.34375 -132.890625 C 202.6875 -131.953125 203.03125 -131.054688 203.375 -130.203125 L 163.203125 -130.203125 L 164.75 -125.09375 L 185.46875 -125.09375 L 186.234375 -121.25 L 183.421875 -121.25 C 183.585938 -120.914062 183.671875 -120.488281 183.671875 -119.96875 C 183.671875 -119.457031 183.753906 -119.035156 183.921875 -118.703125 L 177.015625 -118.703125 L 177.28125 -116.140625 L 182.65625 -116.140625 C 182.65625 -115.453125 182.695312 -114.8125 182.78125 -114.21875 C 182.863281 -113.625 182.90625 -112.984375 182.90625 -112.296875 L 192.375 -112.296875 C 192.539062 -111.617188 192.625 -111.023438 192.625 -110.515625 C 192.625 -110.003906 192.625 -109.40625 192.625 -108.71875 L 192.625 -108.46875 L 168.578125 -108.46875 C 168.578125 -107.613281 168.617188 -106.757812 168.703125 -105.90625 C 168.796875 -105.050781 168.84375 -104.195312 168.84375 -103.34375 L 174.203125 -103.34375 C 174.203125 -102.488281 174.242188 -101.632812 174.328125 -100.78125 C 174.421875 -99.9375 174.46875 -99.085938 174.46875 -98.234375 L 183.671875 -98.234375 L 183.671875 -96.953125 L 180.09375 -96.953125 L 180.09375 -91.84375 L 181.109375 -91.84375 L 181.109375 -88 L 196.203125 -88 L 196.203125 -82.890625 L 181.875 -82.890625 L 181.875 -80.328125 L 180.34375 -80.328125 C 180.34375 -79.984375 180.34375 -79.554688 180.34375 -79.046875 C 180.34375 -78.535156 180.257812 -78.109375 180.09375 -77.765625 L 175.484375 -77.765625 L 175.484375 -72.65625 L 176 -72.65625 C 175.832031 -72.144531 175.75 -71.460938 175.75 -70.609375 L 175.75 -70.09375 L 185.203125 -70.09375 C 185.203125 -69.40625 185.160156 -68.765625 185.078125 -68.171875 C 184.992188 -67.578125 184.953125 -66.9375 184.953125 -66.25 L 188.796875 -66.25 C 188.796875 -65.394531 188.75 -64.539062 188.65625 -63.6875 C 188.570312 -62.84375 188.445312 -61.992188 188.28125 -61.140625 L 182.65625 -61.140625 C 182.476562 -60.796875 182.390625 -60.367188 182.390625 -59.859375 C 182.390625 -59.347656 182.304688 -58.921875 182.140625 -58.578125 L 151.4375 -58.578125 C 151.4375 -57.898438 151.265625 -57.046875 150.921875 -56.015625 L 177.796875 -56.015625 C 177.453125 -54.992188 177.28125 -54.144531 177.28125 -53.46875 L 181.109375 -53.46875 C 180.941406 -52.78125 180.816406 -52.140625 180.734375 -51.546875 C 180.648438 -50.953125 180.4375 -50.3125 180.09375 -49.625 L 179.328125 -47.0625 L 171.90625 -47.0625 L 171.390625 -45.796875 L 183.421875 -45.796875 C 183.078125 -45.109375 182.90625 -44.679688 182.90625 -44.515625 L 175.234375 -44.515625 L 174.71875 -43.234375 L 174.46875 -43.234375 C 174.125 -42.378906 173.78125 -41.523438 173.4375 -40.671875 C 173.09375 -39.816406 172.664062 -38.960938 172.15625 -38.109375 L 168.328125 -38.109375 L 165.515625 -33 L 169.859375 -33 L 168.328125 -30.4375 L 168.578125 -30.4375 C 168.234375 -30.101562 167.890625 -29.675781 167.546875 -29.15625 C 167.210938 -28.644531 166.875 -28.222656 166.53125 -27.890625 L 164.75 -27.890625 C 164.226562 -27.367188 163.882812 -26.941406 163.71875 -26.609375 C 163.207031 -25.921875 162.695312 -25.28125 162.1875 -24.6875 C 161.675781 -24.09375 161.078125 -23.453125 160.390625 -22.765625 L 159.625 -22.765625 C 158.769531 -21.910156 157.875 -21.054688 156.9375 -20.203125 C 156 -19.359375 155.019531 -18.507812 154 -17.65625 L 156.296875 -17.65625 L 150.921875 -13.8125 L 151.1875 -13.8125 C 149.820312 -12.957031 148.367188 -12.101562 146.828125 -11.25 C 145.296875 -10.40625 143.675781 -9.554688 141.96875 -8.703125 L 141.71875 -8.703125 C 140.007812 -7.847656 137.878906 -6.992188 135.328125 -6.140625 L 135.578125 -6.140625 C 132.171875 -4.941406 128.585938 -3.914062 124.828125 -3.0625 C 121.078125 -2.21875 117.242188 -1.535156 113.328125 -1.015625 L 118.703125 -1.015625 C 115.972656 -0.679688 113.15625 -0.425781 110.25 -0.25 C 107.351562 -0.0820312 104.367188 0 101.296875 0 L 26.34375 0 C 24.8125 0 23.617188 -0.335938 22.765625 -1.015625 L 17.390625 -1.015625 C 15.691406 -2.046875 14.671875 -3.753906 14.328125 -6.140625 L 14.0625 -6.140625 L 14.0625 -8.703125 L 14.578125 -8.703125 L 14.578125 -13.8125 L 14.0625 -13.8125 L 14.0625 -17.65625 L 12.015625 -17.65625 L 12.015625 -22.765625 L 12.796875 -22.765625 L 12.796875 -26.609375 L 12.53125 -26.609375 L 12.53125 -27.890625 L 14.578125 -27.890625 L 14.578125 -30.4375 L 14.328125 -30.4375 L 14.328125 -33 L 9.71875 -33 L 9.71875 -38.109375 L 13.8125 -38.109375 L 13.8125 -43.234375 L 14.0625 -43.234375 L 14.0625 -44.515625 L 21.75 -44.515625 L 21.75 -45.796875 L 9.984375 -45.796875 L 9.984375 -47.0625 L 17.390625 -47.0625 L 17.390625 -53.46875 L 13.8125 -53.46875 L 13.8125 -56.015625 L 13.5625 -56.015625 L 13.5625 -58.578125 L 20.203125 -58.578125 L 20.203125 -61.140625 L -9.203125 -61.140625 L -9.203125 -66.25 L -10.234375 -66.25 L -10.234375 -70.09375 L -6.90625 -70.09375 L -6.90625 -72.65625 L 3.578125 -72.65625 L 3.578125 -77.765625 L 10.234375 -77.765625 L 10.234375 -80.328125 L 14.0625 -80.328125 L 14.0625 -82.890625 L 18.15625 -82.890625 L 18.15625 -88 L 24.046875 -88 L 24.046875 -91.84375 L 29.671875 -91.84375 L 29.671875 -96.953125 L 12.53125 -96.953125 L 12.53125 -98.234375 L 6.90625 -98.234375 L 6.90625 -103.34375 L -4.34375 -103.34375 L -4.34375 -108.46875 L 24.8125 -108.46875 L 24.8125 -112.296875 L 2.296875 -112.296875 L 2.296875 -116.140625 L 14.578125 -116.140625 L 14.578125 -118.703125 L 14.0625 -118.703125 L 14.0625 -121.25 L 12.015625 -121.25 L 12.015625 -125.09375 L 1.015625 -125.09375 L 1.015625 -130.203125 L 40.9375 -130.203125 L 40.9375 -135.328125 L 50.390625 -135.328125 L 50.390625 -139.15625 L 4.34375 -139.15625 L 4.34375 -144.28125 L 34.53125 -144.28125 L 34.53125 -145.5625 L 10.75 -145.5625 L 10.75 -146.84375 L 59.09375 -146.84375 L 59.09375 -151.953125 L 52.953125 -151.953125 L 52.953125 -153.234375 L -7.9375 -153.234375 L -7.9375 -158.34375 L -0.515625 -158.34375 L -0.515625 -162.1875 L 15.34375 -162.1875 L 15.34375 -163.46875 L 23.796875 -163.46875 L 23.796875 -166.015625 L 19.1875 -166.015625 L 19.1875 -167.296875 L 13.8125 -167.296875 L 13.8125 -169.859375 L 14.328125 -169.859375 L 14.328125 -172.15625 C 14.328125 -172.5 14.367188 -172.796875 14.453125 -173.046875 C 14.535156 -173.304688 14.578125 -173.523438 14.578125 -173.703125 L 15.609375 -173.703125 C 16.460938 -177.273438 18.765625 -179.0625 22.515625 -179.0625 L 96.1875 -179.0625 C 109.320312 -179.0625 121.257812 -177.273438 132 -173.703125 L 130.96875 -173.703125 C 134.039062 -172.671875 137.195312 -171.390625 140.4375 -169.859375 L 139.921875 -169.859375 C 140.773438 -169.515625 141.671875 -169.128906 142.609375 -168.703125 C 143.546875 -168.273438 144.359375 -167.804688 145.046875 -167.296875 L 150.421875 -167.296875 L 152.71875 -166.015625 L 157.0625 -166.015625 C 157.914062 -165.679688 158.640625 -165.253906 159.234375 -164.734375 C 159.835938 -164.222656 160.476562 -163.800781 161.15625 -163.46875 L 152.71875 -163.46875 C 153.0625 -163.289062 153.398438 -163.117188 153.734375 -162.953125 C 154.078125 -162.785156 154.335938 -162.53125 154.515625 -162.1875 L 138.65625 -162.1875 L 143.515625 -158.34375 L 135.84375 -158.34375 C 137.71875 -156.8125 139.421875 -155.109375 140.953125 -153.234375 L 201.84375 -153.234375 C 202.007812 -153.054688 202.175781 -152.882812 202.34375 -152.71875 C 202.519531 -152.550781 202.691406 -152.296875 202.859375 -151.953125 L 209.25 -151.953125 C 209.9375 -151.265625 210.617188 -150.453125 211.296875 -149.515625 C 211.984375 -148.578125 212.582031 -147.6875 213.09375 -146.84375 L 164.75 -146.84375 C 164.914062 -146.664062 165.082031 -146.488281 165.25 -146.3125 C 165.425781 -146.144531 165.597656 -145.894531 165.765625 -145.5625 L 189.5625 -145.5625 L 190.328125 -144.28125 L 160.140625 -144.28125 C 161.328125 -142.570312 162.265625 -140.863281 162.953125 -139.15625 Z M 118.703125 -121.25 C 117.671875 -122.789062 116.390625 -124.070312 114.859375 -125.09375 L 94.140625 -125.09375 C 90.390625 -127.820312 85.785156 -129.1875 80.328125 -129.1875 L 64.96875 -129.1875 L 64.96875 -125.09375 L 75.96875 -125.09375 L 75.96875 -121.25 L 78.015625 -121.25 L 78.015625 -118.703125 L 78.53125 -118.703125 L 78.53125 -116.140625 L 66.25 -116.140625 L 66.25 -112.296875 L 88.765625 -112.296875 L 88.765625 -108.46875 L 59.609375 -108.46875 L 59.609375 -103.34375 L 70.859375 -103.34375 L 70.859375 -98.234375 L 76.484375 -98.234375 L 76.484375 -96.953125 L 93.625 -96.953125 L 93.625 -91.84375 L 88 -91.84375 L 88 -88 L 82.109375 -88 L 82.109375 -82.890625 L 78.015625 -82.890625 L 78.015625 -80.328125 L 74.1875 -80.328125 L 74.1875 -77.765625 L 67.53125 -77.765625 L 67.53125 -72.65625 L 57.046875 -72.65625 L 57.046875 -70.09375 L 53.71875 -70.09375 L 53.71875 -66.25 L 54.75 -66.25 L 54.75 -61.140625 L 84.15625 -61.140625 L 84.15625 -58.578125 L 77.515625 -58.578125 L 77.515625 -56.015625 L 77.765625 -56.015625 L 77.765625 -53.46875 L 81.34375 -53.46875 L 81.34375 -49.890625 L 97.96875 -49.890625 C 102.914062 -49.890625 107.097656 -51.082031 110.515625 -53.46875 L 106.421875 -53.46875 C 106.929688 -53.800781 107.441406 -54.179688 107.953125 -54.609375 C 108.460938 -55.035156 108.890625 -55.503906 109.234375 -56.015625 L 82.625 -56.015625 C 82.96875 -56.359375 83.304688 -56.742188 83.640625 -57.171875 C 83.984375 -57.597656 84.242188 -58.066406 84.421875 -58.578125 L 115.109375 -58.578125 C 115.453125 -58.921875 115.707031 -59.304688 115.875 -59.734375 C 116.050781 -60.160156 116.222656 -60.628906 116.390625 -61.140625 L 122.28125 -61.140625 C 122.625 -61.992188 122.878906 -62.84375 123.046875 -63.6875 C 123.210938 -64.539062 123.382812 -65.394531 123.5625 -66.25 L 119.71875 -66.25 C 119.882812 -66.9375 119.96875 -67.578125 119.96875 -68.171875 C 119.96875 -68.765625 120.054688 -69.40625 120.234375 -70.09375 L 110.765625 -70.09375 L 110.765625 -70.609375 C 110.765625 -70.941406 110.804688 -71.28125 110.890625 -71.625 C 110.972656 -71.96875 111.015625 -72.3125 111.015625 -72.65625 L 110.515625 -72.65625 C 110.515625 -73.507812 110.515625 -74.40625 110.515625 -75.34375 C 110.515625 -76.28125 110.597656 -77.085938 110.765625 -77.765625 L 115.375 -77.765625 L 115.375 -80.328125 L 116.90625 -80.328125 L 117.15625 -82.890625 L 131.484375 -82.890625 L 131.484375 -88 L 116.390625 -88 L 116.390625 -91.84375 L 115.375 -91.84375 L 115.375 -96.953125 L 118.953125 -96.953125 L 118.953125 -98.234375 L 109.484375 -98.234375 L 109.484375 -103.34375 L 103.859375 -103.34375 C 103.859375 -104.195312 103.859375 -105.050781 103.859375 -105.90625 C 103.859375 -106.757812 103.773438 -107.613281 103.609375 -108.46875 L 127.65625 -108.46875 L 127.65625 -108.71875 C 127.65625 -109.40625 127.609375 -110.046875 127.515625 -110.640625 C 127.429688 -111.234375 127.390625 -111.785156 127.390625 -112.296875 L 117.921875 -112.296875 C 117.753906 -112.984375 117.582031 -113.625 117.40625 -114.21875 C 117.238281 -114.8125 117.070312 -115.453125 116.90625 -116.140625 L 111.53125 -116.140625 C 111.363281 -116.648438 111.191406 -117.117188 111.015625 -117.546875 C 110.847656 -117.972656 110.679688 -118.359375 110.515625 -118.703125 L 117.421875 -118.703125 C 117.242188 -119.210938 117.023438 -119.679688 116.765625 -120.109375 C 116.515625 -120.535156 116.222656 -120.914062 115.890625 -121.25 Z M 118.703125 -121.25 "/></g></g></g></svg>